<svg width="27" height="20" viewBox="0 0 27 20" fill="none" xmlns="http://www.w3.org/2000/svg">
<g clip-path="url(#clip0_309_6)">
<path d="M19.8875 13.2801C19.8018 13.2247 19.7051 13.2002 19.6062 13.2186C19.5073 13.237 19.4238 13.2862 19.3645 13.3641L19.0305 13.8025C18.9119 13.7533 18.7888 13.7165 18.657 13.6857C18.5251 13.655 18.4021 13.6304 18.2703 13.612L18.1648 13.0383C18.145 12.94 18.0923 12.8683 18.0154 12.8129C17.9297 12.7576 17.8396 12.7392 17.7341 12.7576L16.9629 12.8867C16.864 12.9051 16.7871 12.9482 16.7212 13.0281C16.6619 13.108 16.6355 13.192 16.6553 13.2903L16.7542 13.8148C16.6289 13.864 16.5125 13.9193 16.4004 13.9848C16.2883 14.0463 16.1785 14.1201 16.0796 14.1918L15.5566 13.8558C15.4709 13.8005 15.3809 13.7759 15.282 13.7943C15.1831 13.8127 15.0996 13.8619 15.0403 13.9418L14.5942 14.5339C14.5349 14.6138 14.5085 14.704 14.5283 14.7961C14.5481 14.8945 14.6008 14.9662 14.6865 15.0215L15.1567 15.3329C15.104 15.4436 15.0645 15.5583 15.0315 15.6812C14.9985 15.8041 14.9722 15.9189 14.9524 16.0418L14.3372 16.1401C14.2317 16.1586 14.1548 16.2077 14.0955 16.2795C14.0361 16.3594 14.0164 16.4434 14.0361 16.5417L14.1746 17.2608C14.1943 17.353 14.2405 17.4247 14.324 17.4862C14.4097 17.5415 14.4998 17.5661 14.6052 17.5476L15.1677 17.4554C15.2205 17.5722 15.2798 17.6808 15.3501 17.7853C15.416 17.8898 15.4951 17.9922 15.572 18.0906L15.2117 18.572C15.1523 18.6519 15.126 18.7359 15.1458 18.8281C15.1655 18.9203 15.2183 18.9982 15.3018 19.0535L15.9434 19.4735C16.0291 19.5288 16.1257 19.5472 16.2246 19.5288C16.3235 19.5103 16.407 19.4673 16.4729 19.3895L16.8069 18.9449C16.9255 18.9941 17.0486 19.0309 17.1804 19.0617C17.3123 19.0924 17.4353 19.117 17.5671 19.1354L17.6726 19.7091C17.6924 19.8074 17.7451 19.8791 17.822 19.9344C17.9077 19.9898 17.9978 20.0082 18.1033 19.9898L18.8745 19.8607C18.9734 19.8422 19.0503 19.7992 19.1162 19.7214C19.1755 19.6415 19.2019 19.5575 19.1821 19.4591L19.0833 18.9346C19.2085 18.8855 19.325 18.8302 19.437 18.7646C19.5491 18.7031 19.6589 18.6314 19.7644 18.5577L20.2808 18.8937C20.3665 18.949 20.4565 18.9736 20.562 18.9551C20.6675 18.9367 20.7444 18.8875 20.8037 18.8097L21.2542 18.2114C21.3135 18.1315 21.3333 18.0414 21.3135 17.9492C21.2937 17.857 21.2476 17.7791 21.1619 17.7177L20.6851 17.4124C20.7378 17.3018 20.7773 17.1871 20.8103 17.0641C20.8433 16.9412 20.8696 16.8265 20.8894 16.7035L21.5046 16.6052C21.6101 16.5868 21.687 16.5376 21.7463 16.4638C21.8057 16.3839 21.8254 16.2999 21.8057 16.2016L21.6672 15.4825C21.6475 15.3903 21.6013 15.3186 21.5178 15.2571C21.4321 15.2018 21.342 15.1772 21.2366 15.1957L20.6741 15.2879C20.6213 15.1772 20.562 15.0686 20.4917 14.958C20.4258 14.8474 20.3467 14.7511 20.2698 14.6589L20.6301 14.1713C20.6895 14.0914 20.7158 14.0074 20.696 13.9152C20.6763 13.823 20.6235 13.7451 20.54 13.6898L19.905 13.2739L19.8875 13.2801ZM25.6904 11.2948L24.2578 11.3071C24.0491 11.3092 23.8799 11.1514 23.8777 10.9568C23.8755 10.7621 24.0447 10.6044 24.2512 10.6023L26.6089 10.5798H26.6111H26.6199H26.6221H26.6309H26.6331H26.6418H26.644H26.6528H26.655H26.6638H26.666L26.6748 10.5818H26.677L26.6858 10.5839H26.688L26.6968 10.5859H26.699L26.7056 10.588H26.7078L26.7144 10.59H26.7166L26.7231 10.5921H26.7253L26.7319 10.5941H26.7341L26.7407 10.5962H26.7429L26.7495 10.5982H26.7517L26.7583 10.6003H26.7605L26.7671 10.6023H26.7693L26.7759 10.6044H26.7781L26.7847 10.6064H26.7869L26.7935 10.6105H26.7957L26.8022 10.6146H26.8044L26.811 10.6187H26.8132L26.8198 10.6228H26.822L26.8286 10.6269H26.8308L26.8374 10.631H26.8396L26.8462 10.6351H26.8484L26.855 10.6392H26.8572L26.8638 10.6433H26.866L26.8726 10.6474H26.8748L26.8813 10.6515H26.8835L26.8901 10.6556H26.8923L26.8989 10.6597L26.9011 10.6617L26.9055 10.6658L26.9077 10.6679L26.9121 10.672L26.9165 10.6761V10.6781L26.9209 10.6843V10.6863L26.9253 10.6925V10.6945L26.9297 10.7007V10.7027L26.9341 10.7089V10.7109L26.9385 10.7171V10.7191L26.9429 10.7253V10.7273L26.9473 10.7335V10.7355L26.9517 10.7417V10.7437L26.9561 10.7498V10.7519L26.9604 10.758V10.7601L26.9648 10.7662V10.7683L26.9692 10.7744V10.7765L26.9736 10.7826V10.7847L26.9758 10.7908V10.7929L26.978 10.799V10.8011L26.9802 10.8072L26.9824 10.8134V10.8154V10.8175L26.9846 10.8236V10.8257L26.9868 10.8318V10.8338L26.989 10.84V10.842L26.9912 10.8482V10.8502L26.9934 10.8564V10.8584L26.9956 10.8666V10.8687L26.9978 10.8769V10.8789L27 10.8871V10.8892L27.0022 10.8974V10.9056V10.9076V10.9158V10.9178V10.926V10.9281V10.9363V10.9383L27.0132 13.2104C27.0132 13.405 26.8462 13.5628 26.6375 13.5648C26.4287 13.5648 26.2595 13.4091 26.2595 13.2145L26.2529 11.7886L24.8687 13.0793C24.7214 13.2166 24.4797 13.2166 24.3325 13.0793C24.1853 12.942 24.1853 12.7167 24.3325 12.5794L25.6904 11.2948ZM12.665 0.712969L11.2324 0.725261C11.0237 0.72731 10.8545 0.569555 10.8523 0.376972C10.8501 0.18234 11.0193 0.0245851 11.228 0.0225364L13.5857 0H13.5879H13.5967H13.5989H13.6077H13.6099H13.6187H13.6208H13.6296H13.6318H13.6406H13.6428L13.6516 0.00204876H13.6538L13.6626 0.00409752H13.6648L13.6736 0.00614628H13.6758L13.6824 0.00819504H13.6846L13.6912 0.0102438H13.6934L13.7 0.0122926H13.7021L13.7087 0.0143413H13.7109L13.7175 0.0163901H13.7197L13.7263 0.0184388H13.7285L13.7351 0.0204876H13.7373L13.7439 0.0225364H13.7461L13.7527 0.0245851H13.7549L13.7615 0.0266339H13.7637L13.7703 0.0307314H13.7725L13.7791 0.0348289H13.7813L13.7878 0.0389264H13.79L13.7966 0.043024H13.7988L13.8054 0.0471215H13.8076L13.8142 0.051219H13.8164L13.823 0.0553165H13.8252L13.8318 0.0594141H13.834L13.8406 0.0635116H13.8428L13.8494 0.0676091H13.8516L13.8582 0.0717066H13.8604L13.8669 0.0758041H13.8691L13.8757 0.0799017L13.8779 0.0819504L13.8823 0.0860479L13.8845 0.0880967L13.8889 0.0921942V0.094243L13.8933 0.0983405V0.100389L13.8977 0.106536V0.108584L13.9021 0.114731V0.116779L13.9065 0.122926V0.124974L13.9109 0.131121V0.133169L13.9153 0.139316V0.141364L13.9197 0.147511V0.14956L13.9241 0.155706V0.157755L13.9285 0.163901V0.16595L13.9329 0.172096V0.174145L13.9373 0.180291V0.18234L13.9417 0.188486V0.190535L13.946 0.196681V0.19873L13.9307 0.204876V0.206925L13.9329 0.213071V0.21512L13.9351 0.221266V0.223315L13.9373 0.229461L13.9395 0.235607V0.237656V0.239705L13.9417 0.245851V0.2479L13.9438 0.254046V0.256095L13.946 0.262241V0.26429L13.9482 0.270436V0.272485L13.9504 0.28068V0.282729L13.9526 0.290924V0.292973L13.9548 0.301168V0.303217L13.957 0.311412V0.31346V0.321655V0.32985V0.331899V0.340094V0.342143V0.350338V0.352387V0.360582V0.362631L13.968 2.63471C13.968 2.82934 13.801 2.98709 13.5923 2.98709C13.3835 2.98709 13.2144 2.83139 13.2144 2.63675L13.2078 1.21082L11.8235 2.50154C11.6763 2.6388 11.4346 2.6388 11.2874 2.50154C11.1401 2.36427 11.1401 2.13891 11.2874 2.00164L12.665 0.712969ZM21.4211 3.6386L18.7559 3.66318C18.4438 3.66523 18.189 3.43167 18.1868 3.14075C18.1846 2.84983 18.4351 2.61217 18.7471 2.61012L22.7966 2.57324H22.7988H22.812H22.8142H22.8274H22.8296H22.8428H22.845H22.8582H22.8604L22.8713 2.57529H22.8735L22.8845 2.57734H22.8867L22.8977 2.57939H22.8999L22.9109 2.58144H22.9131L22.9241 2.58349H22.9263L22.9373 2.58554H22.9395L22.9504 2.58758H22.9526L22.9636 2.58963H22.9658L22.9768 2.59373H22.979L22.99 2.59783H22.9922L23.0032 2.60193H23.0054L23.0164 2.60602H23.0186L23.0295 2.61012H23.0317L23.0427 2.61422H23.0449L23.0559 2.61832H23.0581L23.0691 2.62241L23.0713 2.62446L23.0823 2.62856L23.0845 2.63061L23.0933 2.63675L23.0955 2.6388L23.1042 2.64495L23.1064 2.647L23.1152 2.65314L23.1174 2.65519L23.1262 2.66134L23.1284 2.66339L23.1372 2.66953L23.1394 2.67158L23.1482 2.67773L23.1504 2.67978L23.1592 2.68592L23.1614 2.68797L23.1702 2.69412L23.1724 2.69617L23.1812 2.70232L23.1834 2.70436L23.1921 2.71051L23.1943 2.71256L23.2031 2.72075L23.2053 2.7228L23.2141 2.731L23.2163 2.73305L23.2251 2.74124L23.2273 2.74329L23.2339 2.75149L23.2361 2.75353L23.2427 2.76173L23.2449 2.76378L23.2515 2.77197L23.2537 2.77402L23.2603 2.78222L23.2625 2.78427L23.269 2.79246L23.2712 2.79451L23.2778 2.8027L23.28 2.80475L23.2866 2.81295L23.2888 2.815L23.2954 2.82319L23.2976 2.82524L23.3042 2.83344V2.83548L23.3108 2.84573V2.84778L23.3174 2.85802L23.3218 2.86826V2.87031L23.3262 2.88056V2.88261L23.3306 2.89285V2.8949L23.335 2.90514V2.90719L23.3394 2.91743V2.91948L23.3437 2.92973V2.93178L23.3481 2.94202V2.94407L23.3525 2.95431V2.95636L23.3547 2.96661V2.96865L23.3569 2.9789V2.98095L23.3591 2.99119V2.99324L23.3613 3.00553L23.3635 3.01578V3.01782L23.3657 3.02807V3.03012L23.3679 3.04036V3.04241L23.3701 3.0547V3.05675V3.06904V3.07109V3.08543V3.09773V3.09977L23.3877 6.92891C23.3899 7.21983 23.1372 7.45544 22.8252 7.45749C22.5132 7.45954 22.2605 7.22393 22.2583 6.93301L22.2473 4.37001L18.3274 8.01885C18.1055 8.22577 17.7473 8.22577 17.5254 8.01885C17.3035 7.81192 17.3035 7.47798 17.5254 7.27105L21.4211 3.6386ZM17.6418 14.9764C17.844 14.9457 18.0483 14.9457 18.2505 14.9887C18.446 15.0318 18.624 15.1055 18.7866 15.2079C18.9426 15.3124 19.0811 15.4456 19.1931 15.6054C19.3052 15.7632 19.3755 15.9414 19.4084 16.1299C19.4414 16.3184 19.4414 16.5089 19.3953 16.6974C19.3491 16.8797 19.27 17.0457 19.1602 17.1973C19.0481 17.3428 18.9053 17.4718 18.7339 17.5763C18.5647 17.6808 18.3735 17.7464 18.1714 17.7771C17.9692 17.8078 17.7649 17.8078 17.5627 17.7648C17.3672 17.7218 17.1892 17.648 17.0266 17.5456C16.8706 17.4411 16.7322 17.3079 16.6201 17.1481C16.5081 16.9904 16.4377 16.8121 16.4048 16.6236C16.3718 16.4352 16.3718 16.2446 16.418 16.0561C16.4641 15.8738 16.5432 15.7078 16.6531 15.5562C16.7651 15.4108 16.908 15.2817 17.0793 15.1772C17.2507 15.0748 17.4397 15.0072 17.6418 14.9764ZM11.7004 6.42286C11.6675 6.39213 11.6411 6.37369 11.6082 6.3614C11.5818 6.34911 11.5488 6.34296 11.5093 6.34296C11.4697 6.34296 11.4368 6.34911 11.4104 6.3614C11.384 6.37369 11.3511 6.39213 11.3247 6.41672L11.3181 6.42286L10.5776 7.1133C10.4326 7.24851 10.2041 7.2649 10.0415 7.15632C9.95581 7.10715 9.87231 7.05798 9.77344 7.01086C9.66797 6.96169 9.57129 6.91252 9.479 6.86949C9.38013 6.82647 9.27686 6.78345 9.17139 6.74657C9.0791 6.71584 8.97583 6.67896 8.85059 6.64208C8.6748 6.58676 8.56274 6.43516 8.56274 6.26921V5.2141C8.56274 5.17722 8.55615 5.14034 8.54297 5.11575C8.52979 5.09117 8.51001 5.06044 8.48364 5.042C8.45728 5.01741 8.43091 4.99898 8.40454 4.98668C8.37817 4.97439 8.33862 4.96824 8.29907 4.96824H6.87744C6.83789 4.96824 6.80493 4.97439 6.77856 4.98054C6.7522 4.99283 6.71924 5.01127 6.68628 5.042C6.65991 5.06658 6.64014 5.09117 6.63355 5.11575C6.62036 5.14034 6.61377 5.17722 6.61377 5.2141V6.18521C6.61377 6.37984 6.46216 6.53964 6.2666 6.57652C6.15454 6.60111 6.05127 6.62569 5.95898 6.65028C5.85352 6.68101 5.75684 6.71174 5.65137 6.74862C5.55249 6.78549 5.44922 6.82237 5.35034 6.87154C5.24487 6.91457 5.15479 6.96374 5.0625 7.00676C4.89331 7.09281 4.69556 7.06208 4.56592 6.93915L3.74854 6.18316C3.74194 6.17701 3.74194 6.17701 3.74194 6.17087C3.71558 6.14628 3.68921 6.12784 3.66284 6.11555C3.63647 6.10326 3.61011 6.10326 3.57056 6.10326C3.53101 6.10326 3.49805 6.1094 3.47168 6.1217C3.43872 6.13399 3.41235 6.15243 3.37939 6.18316L2.38403 7.11739C2.35107 7.14813 2.3313 7.17271 2.31812 7.20344C2.30493 7.22803 2.29834 7.25876 2.29834 7.29564C2.29834 7.33251 2.30493 7.36325 2.31812 7.38783C2.3313 7.41242 2.35107 7.44315 2.37744 7.46773V7.47388L3.11792 8.16431C3.26074 8.29748 3.28052 8.5126 3.16406 8.66421C3.11133 8.74411 3.05859 8.82196 3.00806 8.91416C2.95532 9.0125 2.90259 9.10264 2.85645 9.18869C2.8103 9.28088 2.76416 9.37718 2.72461 9.47552C2.69165 9.56157 2.6521 9.65786 2.61255 9.77464C2.55322 9.93854 2.39062 10.043 2.21265 10.043H1.08545C1.0459 10.043 1.00635 10.0492 0.97998 10.0615C0.953613 10.0738 0.927246 10.0922 0.900879 10.1106C0.874512 10.1352 0.854736 10.1598 0.848145 10.1844C0.834961 10.209 0.828369 10.2459 0.828369 10.2827V11.6124C0.828369 11.6493 0.834961 11.68 0.841553 11.7046C0.854736 11.7292 0.874512 11.7599 0.907471 11.7906C0.933838 11.8152 0.960205 11.8336 0.986572 11.8398C1.01294 11.8521 1.05249 11.8582 1.09204 11.8582H2.13354C2.34229 11.8582 2.51367 11.9975 2.55322 12.1819C2.57959 12.2864 2.60596 12.3827 2.63232 12.4626C2.66528 12.561 2.69824 12.6572 2.73779 12.7556C2.77734 12.8478 2.81689 12.9441 2.86963 13.0424C2.92236 13.1469 2.96851 13.237 3.01465 13.3231C3.10034 13.4808 3.06738 13.6652 2.93555 13.78L2.12476 14.5298L2.11377 14.5257C2.0874 14.5503 2.06763 14.5749 2.05444 14.5995C2.04126 14.6241 2.04126 14.6486 2.04126 14.6855C2.04126 14.7224 2.04785 14.7531 2.06104 14.7777C2.07422 14.8084 2.09399 14.8392 2.12695 14.8638L3.11572 15.798C3.14209 15.8226 3.17505 15.841 3.20801 15.8533C3.24097 15.8656 3.27393 15.8717 3.31348 15.8717C3.35303 15.8717 3.39258 15.8656 3.42554 15.8533C3.4519 15.841 3.48486 15.8226 3.51123 15.8041L4.24512 15.1076C4.39014 14.9662 4.61865 14.956 4.78125 15.0584C4.86694 15.1076 4.95044 15.1567 5.04932 15.2039C5.15479 15.253 5.25146 15.3022 5.34375 15.3432C5.44263 15.3862 5.5459 15.4292 5.65137 15.4661C5.74365 15.4968 5.84692 15.5337 5.97217 15.5706C6.14795 15.6259 6.26001 15.7775 6.26001 15.9435V16.9986C6.26001 17.0354 6.2666 17.0723 6.27979 17.0969C6.29297 17.1215 6.31274 17.1522 6.33252 17.1707C6.38525 17.2198 6.44458 17.2383 6.52148 17.2383H7.94751C7.98706 17.2383 8.02002 17.2321 8.04639 17.226C8.07275 17.2137 8.10571 17.1952 8.13867 17.1645C8.16504 17.1399 8.18481 17.1153 8.19141 17.0908C8.20459 17.0662 8.21118 17.0293 8.21118 16.9924V16.0213C8.21118 15.8267 8.36279 15.6669 8.55835 15.63C8.67041 15.6054 8.77368 15.5808 8.86597 15.5562C8.97144 15.5255 9.06812 15.4948 9.17358 15.4579C9.27246 15.421 9.37573 15.3841 9.4812 15.335C9.59326 15.2858 9.68994 15.2428 9.78223 15.1998C9.95142 15.1199 10.1492 15.1506 10.2722 15.2735L11.0764 16.0295L11.083 16.0356C11.1094 16.0602 11.1357 16.0787 11.1621 16.091C11.1885 16.1033 11.2214 16.1033 11.261 16.1033C11.3005 16.1033 11.3335 16.0971 11.3599 16.0848C11.3862 16.0725 11.4126 16.0541 11.439 16.0295C11.4456 16.0234 11.4521 16.0172 11.4587 16.0172L12.4541 15.1014C12.4805 15.0768 12.5002 15.0461 12.5134 15.0154C12.5266 14.9846 12.5332 14.9539 12.5332 14.917C12.5332 14.8801 12.5266 14.8433 12.5134 14.8125C12.5002 14.788 12.4805 14.7572 12.4607 14.7326L11.7136 14.0484C11.562 13.9152 11.551 13.7001 11.6609 13.5485C11.7136 13.4686 11.7664 13.3907 11.8169 13.2985C11.8696 13.2002 11.9224 13.11 11.9685 13.024C12.0146 12.9318 12.0608 12.8355 12.1003 12.7371C12.1333 12.6511 12.1729 12.5548 12.2124 12.438C12.2717 12.2741 12.4343 12.1696 12.6123 12.1696H13.7439C13.7834 12.1696 13.823 12.1635 13.8494 12.1512C13.8757 12.1389 13.9087 12.1205 13.9285 12.102C13.9812 12.0529 14.001 11.9975 14.001 11.9258V10.5962C14.001 10.5593 13.9944 10.5286 13.9878 10.504C13.9746 10.4794 13.9548 10.4487 13.9219 10.4179C13.8955 10.3934 13.8691 10.3749 13.8428 10.3688C13.8164 10.3565 13.7769 10.3503 13.7373 10.3503H12.6958C12.4871 10.3503 12.3091 10.2049 12.2761 10.0205C12.2498 9.93444 12.2234 9.84429 12.197 9.7521C12.1641 9.65991 12.1311 9.56361 12.085 9.45913C12.085 9.45298 12.0784 9.44684 12.0784 9.44069C12.0388 9.34235 11.9993 9.25835 11.9597 9.1723C11.9136 9.08011 11.8674 8.98996 11.8147 8.90391C11.7224 8.74616 11.7554 8.56177 11.8872 8.44089L12.698 7.67875C12.698 7.67261 12.7046 7.67261 12.7112 7.67261C12.7375 7.64802 12.7573 7.62344 12.7705 7.59885C12.7837 7.57427 12.7837 7.54968 12.7837 7.5128C12.7837 7.47593 12.7771 7.4452 12.7639 7.42061C12.7507 7.38988 12.731 7.36529 12.698 7.33456L11.696 6.40647L11.7004 6.42286ZM11.9355 5.63409C12.074 5.68941 12.1904 5.76316 12.2959 5.85946L13.2979 6.78754H13.3044C13.4099 6.88588 13.4868 6.99447 13.5461 7.11739C13.6055 7.24647 13.6318 7.37349 13.6318 7.51485C13.6318 7.65417 13.5989 7.78939 13.5461 7.91231C13.4868 8.03524 13.4077 8.14382 13.2979 8.23602L12.709 8.79123C12.7156 8.80967 12.7288 8.82811 12.7354 8.84655C12.7881 8.95103 12.8342 9.05962 12.8782 9.16411C12.8782 9.17025 12.8848 9.1764 12.8848 9.18254C12.9309 9.28703 12.9705 9.40176 13.01 9.52469L13.0232 9.56771H13.7439C13.8933 9.56771 14.0383 9.5923 14.1702 9.64761C14.302 9.69678 14.4185 9.77668 14.5239 9.87298L14.5305 9.87912C14.636 9.97746 14.7129 10.086 14.7656 10.209C14.8184 10.3319 14.8513 10.4651 14.8513 10.6003V11.9299C14.8513 12.2168 14.7458 12.4606 14.5305 12.6613C14.425 12.7597 14.302 12.8375 14.1702 12.8867C14.0383 12.9359 13.8955 12.9605 13.7439 12.9605H12.9067C12.9001 12.9789 12.887 13.0035 12.8804 13.0219C12.8342 13.1326 12.7815 13.2411 12.731 13.3518C12.6716 13.4686 12.6189 13.5771 12.5618 13.6755L12.542 13.7124L13.0518 14.1815L13.0715 14.2C13.177 14.2983 13.2473 14.413 13.3 14.536C13.3528 14.6589 13.3792 14.7859 13.3792 14.9273C13.3792 15.0625 13.3528 15.1895 13.3 15.3124C13.2473 15.4354 13.1748 15.5439 13.0715 15.6484L13.0583 15.6607L12.0564 16.5888C11.9509 16.6933 11.8345 16.765 11.7026 16.8203C11.5708 16.8756 11.428 16.9002 11.2698 16.9002C11.1204 16.9002 10.9753 16.8695 10.8369 16.8203C10.6985 16.765 10.582 16.6851 10.4832 16.5888L9.90088 16.0397C9.8811 16.052 9.86133 16.0582 9.83496 16.0643C9.7229 16.1074 9.60645 16.1565 9.4812 16.1995C9.36255 16.2426 9.2395 16.2795 9.11426 16.3163C9.09448 16.3225 9.0813 16.3286 9.06152 16.3286V16.9945C9.06152 17.1338 9.03516 17.269 8.97583 17.3919C8.9231 17.5149 8.8374 17.6234 8.73413 17.7218L8.72754 17.7279C8.62207 17.8263 8.50562 17.898 8.37378 17.9471C8.24194 17.9963 8.09912 18.027 7.9541 18.027H6.52808C6.22046 18.027 5.95898 17.9287 5.74365 17.7279C5.63818 17.6296 5.55469 17.5149 5.50195 17.3919C5.44922 17.269 5.42285 17.1358 5.42285 16.9945V16.2139C5.40308 16.2077 5.37671 16.1955 5.35693 16.1893C5.23828 16.1463 5.12183 16.0971 5.00317 16.0479C4.87793 15.9926 4.76147 15.9435 4.65601 15.8902L4.61646 15.8717L4.11328 16.3471L4.09351 16.3655C3.98804 16.4638 3.86499 16.5294 3.73315 16.5786C3.60132 16.6277 3.46509 16.6523 3.31348 16.6523C3.16846 16.6523 3.03223 16.6277 2.90039 16.5786C2.76855 16.5294 2.6521 16.4618 2.54004 16.3655L2.52686 16.3532L1.5249 15.4067C1.41943 15.3083 1.34253 15.1998 1.2832 15.0768C1.22388 14.9478 1.19751 14.8207 1.19751 14.6794C1.19751 14.538 1.23047 14.4048 1.2832 14.2819C1.34253 14.159 1.42822 14.0504 1.53149 13.9521L2.12036 13.4091C2.10718 13.3907 2.10059 13.3723 2.09399 13.3477C2.04785 13.2432 1.99512 13.1346 1.94897 13.0178C1.90283 12.901 1.85669 12.7925 1.82373 12.6757L1.81055 12.6265H1.10522C0.953613 12.6265 0.810791 12.6019 0.678955 12.5466C0.547119 12.4974 0.430664 12.4175 0.325195 12.3212L0.318604 12.3151C0.213135 12.2168 0.13623 12.1082 0.0834961 11.9852C0.032959 11.8582 0 11.7251 0 11.5898V10.2602C0 10.1209 0.0263672 9.9918 0.0791016 9.86273C0.131836 9.73981 0.217529 9.63122 0.320801 9.52674C0.42627 9.4284 0.549316 9.35054 0.681152 9.30137C0.812988 9.2522 0.955811 9.22762 1.10742 9.22762H1.94458C1.95117 9.20918 1.96436 9.18459 1.97095 9.16615C2.01709 9.05552 2.06982 8.94694 2.12036 8.8363C2.17969 8.71952 2.23242 8.61094 2.28955 8.5126L2.30933 8.47572L1.80615 8.00041C1.70068 7.90207 1.61719 7.79348 1.56445 7.66441C1.50513 7.53534 1.47876 7.40217 1.47876 7.26695C1.47876 7.12764 1.50513 6.99857 1.56445 6.86949C1.62378 6.74042 1.70288 6.63184 1.80615 6.5335L2.80151 5.59926V5.59312C2.90698 5.49478 3.02344 5.42307 3.15527 5.36775C3.2937 5.31244 3.42993 5.28785 3.58154 5.28785C3.73315 5.28785 3.87598 5.31858 4.00781 5.36775C4.13965 5.42307 4.2561 5.49682 4.35498 5.59926L4.95044 6.14833C4.97021 6.14218 4.98999 6.12989 5.00317 6.12375C5.11523 6.07457 5.23169 6.03155 5.35693 5.98443C5.47559 5.94141 5.59863 5.90453 5.72388 5.86765C5.74365 5.8615 5.75684 5.85536 5.77661 5.85536V5.18951C5.77661 5.04815 5.80298 4.91498 5.8623 4.79205C5.91504 4.66913 6.00073 4.56054 6.104 4.4622L6.1106 4.45605C6.21606 4.35771 6.33252 4.28601 6.46436 4.23684C6.59619 4.18767 6.73901 4.15694 6.88403 4.15694H8.31006C8.45947 4.15694 8.5979 4.18152 8.73633 4.23069C8.87476 4.27986 8.99121 4.35976 9.09668 4.45605C9.20215 4.55439 9.28564 4.66913 9.33838 4.79205C9.39111 4.91498 9.41748 5.04815 9.41748 5.18951V5.97009C9.43726 5.97623 9.46362 5.98853 9.4834 5.99467C9.60205 6.0377 9.71851 6.08687 9.83716 6.13604C9.9624 6.19135 10.0789 6.24052 10.1843 6.29379L10.2239 6.31223L10.7336 5.84307C10.8391 5.74472 10.9556 5.66687 11.094 5.6177C11.2324 5.56238 11.3752 5.5378 11.5203 5.5378C11.6719 5.5378 11.8081 5.56238 11.9465 5.6177V5.63409H11.9355ZM7.41357 8.10695C7.62891 8.10695 7.84644 8.12538 8.05518 8.16841C8.25732 8.20529 8.46167 8.26675 8.66382 8.3446C8.85278 8.4245 9.03735 8.51465 9.20654 8.61914C9.37573 8.72362 9.53394 8.8445 9.67676 8.97972C9.82178 9.11494 9.95142 9.2604 10.0635 9.4243C10.1821 9.58205 10.2788 9.75415 10.3579 9.93034C10.3645 9.94263 10.3645 9.95493 10.3711 9.96107C10.4502 10.1373 10.5095 10.3217 10.5469 10.4978C10.5864 10.6925 10.6128 10.8953 10.6128 11.0961C10.6128 11.2969 10.593 11.4997 10.5469 11.6943C10.5073 11.8828 10.4414 12.0733 10.3579 12.2618C10.2722 12.438 10.1755 12.6101 10.0635 12.7679C9.94482 12.9256 9.82178 13.0731 9.67676 13.2125C9.53174 13.3477 9.37573 13.4686 9.19995 13.573C9.03076 13.6837 8.84619 13.7738 8.65723 13.8476C8.64404 13.8537 8.63086 13.8537 8.62427 13.8599C8.4353 13.9336 8.23755 13.9889 8.04858 14.0238C7.83984 14.0606 7.62231 14.0852 7.40698 14.0852C7.19165 14.0852 6.97412 14.0668 6.76538 14.0238C6.56323 13.9869 6.35889 13.9254 6.15674 13.8476C5.96777 13.7677 5.7832 13.6775 5.61401 13.573C5.44482 13.4686 5.28662 13.3477 5.1438 13.2125C4.99878 13.0772 4.86914 12.9318 4.75708 12.7679C4.63843 12.6101 4.54175 12.438 4.46265 12.2618C4.45605 12.2495 4.45605 12.2372 4.44946 12.2311C4.37036 12.0549 4.31104 11.8705 4.27368 11.6943C4.23413 11.4997 4.20776 11.2969 4.20776 11.0961C4.20776 10.8953 4.22754 10.6925 4.27368 10.4978C4.31323 10.3094 4.37915 10.1188 4.46265 9.93034C4.54834 9.75415 4.64502 9.58205 4.75708 9.4243C4.86914 9.26654 4.99878 9.11903 5.1438 8.97972C5.28662 8.84655 5.44482 8.72362 5.61401 8.61914C5.7832 8.5085 5.96777 8.41836 6.15674 8.3446C6.16992 8.33846 6.18311 8.33845 6.1897 8.33231C6.37866 8.25855 6.57642 8.20324 6.76538 8.16841C6.97412 8.13153 7.19165 8.10695 7.40698 8.10695H7.41357ZM7.89258 8.93669C7.74316 8.90596 7.57837 8.89367 7.41577 8.89367C7.25317 8.89367 7.09497 8.90596 6.93896 8.93669C6.78955 8.96742 6.65112 9.0043 6.51929 9.05347C6.5127 9.05962 6.5061 9.05962 6.49292 9.06577C6.34351 9.12723 6.20508 9.19484 6.07983 9.27269C5.95459 9.35259 5.83813 9.43659 5.73267 9.53493C5.6272 9.63327 5.53052 9.74186 5.45142 9.85864C5.36572 9.97541 5.29541 10.1024 5.22949 10.2438C5.17017 10.3729 5.12402 10.5122 5.09106 10.6597C5.05811 10.799 5.04492 10.9527 5.04492 11.1043C5.04492 11.2559 5.05811 11.4034 5.09106 11.5489C5.12402 11.6882 5.16357 11.8173 5.21631 11.9402C5.2229 11.9463 5.2229 11.9525 5.22949 11.9648C5.29541 12.1061 5.36792 12.2331 5.45142 12.3499C5.53711 12.4667 5.6272 12.5753 5.73267 12.6736C5.83813 12.772 5.95459 12.8621 6.07983 12.9359C6.20508 13.0158 6.34131 13.0813 6.49292 13.1428C6.63135 13.1981 6.78076 13.2411 6.93896 13.2719C7.08838 13.3026 7.25317 13.3149 7.41577 13.3149C7.57837 13.3149 7.73657 13.3026 7.89258 13.2719C8.04419 13.2411 8.18042 13.2043 8.31226 13.1551C8.31885 13.1489 8.32544 13.1489 8.33862 13.1428C8.48804 13.0813 8.62647 13.0137 8.75171 12.9359C8.87695 12.856 8.99341 12.772 9.09888 12.6736C9.20435 12.5753 9.30103 12.4667 9.38013 12.3499C9.46582 12.2331 9.53613 12.1061 9.60205 11.9648C9.66138 11.8357 9.70752 11.6964 9.74048 11.5489C9.77344 11.4075 9.78662 11.2559 9.78662 11.1043C9.78662 10.9527 9.77344 10.8052 9.74048 10.6597C9.70752 10.5204 9.66797 10.3913 9.61523 10.2684C9.60864 10.2622 9.60864 10.2561 9.60205 10.2438C9.53613 10.1024 9.46362 9.97541 9.38013 9.85864C9.29443 9.74186 9.20435 9.63327 9.09888 9.53493C8.99341 9.43659 8.87695 9.34645 8.75171 9.27269C8.62647 9.19279 8.49023 9.12723 8.33862 9.06577C8.2002 9.0084 8.04858 8.96742 7.89258 8.93669Z" fill="url(#paint0_linear_309_6)"/>
</g>
<defs>
<linearGradient id="paint0_linear_309_6" x1="13.5066" y1="0" x2="13.5066" y2="19.9967" gradientUnits="userSpaceOnUse">
<stop stop-color="#008ABD"/>
<stop offset="1" stop-color="#003D58"/>
</linearGradient>
<clipPath id="clip0_309_6">
<rect width="27" height="20" fill="white"/>
</clipPath>
</defs>
</svg>
